<?xml version="1.0" encoding="utf-8"?>
<!-- Generator: Adobe Illustrator 25.4.1, SVG Export Plug-In . SVG Version: 6.00 Build 0)  -->
<svg version="1.1" id="레이어_1" xmlns="http://www.w3.org/2000/svg" xmlns:xlink="http://www.w3.org/1999/xlink" x="0px"
	 y="0px" viewBox="0 0 800 800" style="enable-background:new 0 0 800 800;" xml:space="preserve">
<style type="text/css">
	.st0{fill:#4FA5E3;}
	.st1{fill:#3F87BA;}
	.st2{fill:#FF7C5B;}
	.st3{fill:#D6674B;}
	.st4{fill:#ADADAD;}
	.st5{fill:#E6E6E6;}
	.st6{fill:#FFFFFF;}
</style>
<g id="BACKGROUND">
</g>
<g>
	<path class="st0" d="M360.2,27.2c0,0,54.6,5.1,70.3,59.6l14.6,4.7C438.5,48.3,401.1,15,356,15c-28.2,0-54.2,12.9-71.5,35.4
		l-5.2,6.8l11.7,5.3C302.6,45.1,323.3,29.9,360.2,27.2z"/>
	<path class="st1" d="M430.6,86.9c-15.7-54.6-70.3-59.6-70.3-59.6c-36.9,2.7-57.6,17.9-69.2,35.2l17.2,7.7l3.3-3.8
		C322.8,53.5,339,46.1,356,46.1c32.7,0,59.2,26.5,59.2,59.2v80.6h-0.2v301c0,41.9-34.1,76.1-76,76.1c-41.9,0-76.1-34.1-76.1-76.1
		v-301h-31.2v301c0,59.2,48.1,107.3,107.3,107.3c59.2,0,107.3-48.1,107.3-107.3V105.3c0-4.7-0.5-9.2-1.1-13.7L430.6,86.9z"/>
	<rect x="89.6" y="71.7" class="st2" width="523.3" height="631.3"/>
	<polygon class="st3" points="557.2,130.1 169.9,130.1 169.9,703 693.2,703 693.2,247.7 	"/>
	<polygon class="st4" points="716.4,270.3 580.4,152.7 567.9,304.6 	"/>
	<polygon class="st5" points="567.9,304.6 580.4,152.7 193.1,152.7 193.1,784 716.4,784 716.4,270.3 	"/>
	<polygon class="st6" points="588.1,270.3 580.4,152.7 716.4,270.3 	"/>
	<g>
		<path class="st1" d="M276.7,118.9v288.6c11.3,50.6,62.3,51.5,62.3,51.5c54.7-3.4,58.4-54.9,58.4-54.9V185.9h-16v211.4
			c0,23.4-19,42.4-42.4,42.4c-23.4,0-42.4-19-42.4-42.4V199.4h0.1v-94.1c0-14.2,5.2-28.1,14.7-38.9l6-6.9l-17.6-7.9
			C272.6,78.9,276.7,118.9,276.7,118.9z"/>
		<path class="st0" d="M284.5,50.4c-12.3,16-18.8,35-18.8,54.9v80.6h-0.3v211.4c0,40.6,33,73.6,73.6,73.6c40.6,0,73.6-33,73.6-73.6
			V185.9h-15.3v218.3c0,0-3.6,51.5-58.4,54.9c0,0-51.1-0.8-62.3-51.5V118.9c0,0-4.1-40.1,23.2-67.3l-12.1-5.5L284.5,50.4z"/>
	</g>
</g>
</svg>
