<?xml version="1.0" encoding="utf-8"?>
<!-- Generator: Adobe Illustrator 25.4.1, SVG Export Plug-In . SVG Version: 6.00 Build 0)  -->
<svg version="1.1" id="레이어_1" xmlns="http://www.w3.org/2000/svg" xmlns:xlink="http://www.w3.org/1999/xlink" x="0px"
	 y="0px" viewBox="0 0 800 800" style="enable-background:new 0 0 800 800;" xml:space="preserve">
<style type="text/css">
	.st0{fill:#F1EDE1;}
	.st1{fill:#DEDBD0;}
	.st2{fill:#4BA1A1;}
	.st3{fill:#3B8281;}
	.st4{fill:#F4BA51;}
	.st5{fill:#D4A247;}
	.st6{fill:#4C4E50;}
	.st7{fill:#3E3E40;}
</style>
<g id="BACKGROUND">
</g>
<g>
	<path class="st0" d="M747.2,103.3H398.9H50.7c-22,0-39.7,17.8-39.7,39.7v508.7c0,22,17.8,39.7,39.7,39.7h348.2h348.2
		c22,0,39.8-17.8,39.8-39.7V143C786.9,121.1,769.1,103.3,747.2,103.3z"/>
	<g>
		<path class="st1" d="M719.1,667.9c20.1,0,36.4-16.3,36.4-36.4v-466c0-20.1-16.3-36.4-36.4-36.4H400v538.9H719.1z"/>
	</g>
	<path class="st2" d="M384.3,548.2l-79.5-94.1c-10.3-12.1-35.9-12.1-46.2,0L23.4,642.2c-10.3,12.1,2.6,27.3,23.1,27.3h235.3h98.4
		H401V568L384.3,548.2z"/>
	<path class="st3" d="M777.7,631.6L633.2,370c-14.3-16.9-49.9-16.9-64.2,0L458.5,500.8l-57.1,67.6l0,0L401,568v101.6h0.3h39.3h160.4
		h148.8C778.4,669.6,792,648.4,777.7,631.6z"/>
	<g>
		<path class="st4" d="M164.3,326.2c0,30.4,24.7,55.1,55.1,55.1V271.1C189,271.1,164.3,295.8,164.3,326.2z"/>
		<path class="st5" d="M219.4,271.1v110.2c30.4,0,55.1-24.7,55.1-55.1C274.5,295.8,249.8,271.1,219.4,271.1z"/>
	</g>
	<path class="st6" d="M80.9,667.9c-20.1,0-36.4-16.3-36.4-36.4v-466c0-20.1,16.3-36.4,36.4-36.4H400v-21.5H51.8
		c-22,0-39.7,17.8-39.7,39.7V656c0,22,17.8,39.7,39.7,39.7H400v-27.8H80.9z"/>
	<path class="st7" d="M748.3,107.6H400v21.5h319.1c20.1,0,36.4,16.3,36.4,36.4v466c0,20.1-16.3,36.4-36.4,36.4H400v27.8h348.2
		c22,0,39.7-17.8,39.7-39.7V147.3C788,125.3,770.2,107.6,748.3,107.6z"/>
</g>
</svg>
