<?xml version="1.0" encoding="utf-8"?>
<!-- Generator: Adobe Illustrator 25.4.1, SVG Export Plug-In . SVG Version: 6.00 Build 0)  -->
<svg version="1.1" id="레이어_1" xmlns="http://www.w3.org/2000/svg" xmlns:xlink="http://www.w3.org/1999/xlink" x="0px"
	 y="0px" viewBox="0 0 800 800" style="enable-background:new 0 0 800 800;" xml:space="preserve">
<style type="text/css">
	.st0{clip-path:url(#SVGID_00000080927958839599933420000006793546909347755429_);fill:#98D3EA;}
	.st1{clip-path:url(#SVGID_00000042732612925105386300000008789437064693500075_);fill:#F2BF91;}
	.st2{clip-path:url(#SVGID_00000147190723605762869850000000155417669906877362_);}
	.st3{fill:#67A2BF;}
	.st4{clip-path:url(#SVGID_00000023998089473226337290000002010739515310158216_);fill:#ECEDED;}
	.st5{clip-path:url(#SVGID_00000167386446843905599280000007620591293888052641_);fill:#F2BF91;}
	.st6{clip-path:url(#SVGID_00000108992861843228550160000010828148179017282432_);fill:#FFFFFF;}
	.st7{clip-path:url(#SVGID_00000161607481720014288680000008617025130100983680_);fill:#ECEDED;}
	.st8{clip-path:url(#SVGID_00000165226899862213309320000003370643562760840364_);fill:#ECEDED;}
	.st9{clip-path:url(#SVGID_00000070810226680940483040000017495491181953109664_);fill:#ECEDED;}
	.st10{clip-path:url(#SVGID_00000007390577810475440230000010535130311955925391_);fill:#ECEDED;}
	.st11{clip-path:url(#SVGID_00000062158511925772809760000008436692903637319573_);fill:#ECEDED;}
	.st12{clip-path:url(#SVGID_00000060014012815154987590000008739862368305553328_);fill:#ECEDED;}
	.st13{clip-path:url(#SVGID_00000002343681741443751580000016942958473527967647_);fill:#ECEDED;}
	.st14{clip-path:url(#SVGID_00000085236833309864343040000004858586488363495858_);fill:#ECEDED;}
	.st15{clip-path:url(#SVGID_00000150072797558171668470000011930256249968206210_);fill:#ECEDED;}
	.st16{clip-path:url(#SVGID_00000008870074529022331230000017226105905192445328_);fill:#ECEDED;}
	.st17{clip-path:url(#SVGID_00000046305238594314848600000010448350522766185359_);fill:#ECEDED;}
	.st18{clip-path:url(#SVGID_00000161630408924580703230000005256492951241149884_);fill:#76BA36;}
	.st19{clip-path:url(#SVGID_00000005255845756301366190000010694756678424401821_);fill:#76BA36;}
	.st20{clip-path:url(#SVGID_00000106855844096636074740000002508969857921245860_);fill:#76BA36;}
	.st21{clip-path:url(#SVGID_00000124134285650187604450000000362762832062151814_);fill:#FF473B;}
	.st22{clip-path:url(#SVGID_00000121998721825401498010000017245359882164856496_);fill:#FF473B;}
	.st23{clip-path:url(#SVGID_00000011014188838688510140000010645976149713127817_);fill:#FFC999;}
	.st24{clip-path:url(#SVGID_00000182523384553275364190000005755287827155077281_);fill:#FFC999;}
	.st25{clip-path:url(#SVGID_00000054260096076905655380000007364112405859063441_);fill:#76BA36;}
	.st26{clip-path:url(#SVGID_00000181798977707408443210000004848130487148348294_);fill:#FFF88C;}
	.st27{clip-path:url(#SVGID_00000026873574799584684280000002129627208913242796_);fill:#FFC999;}
	.st28{clip-path:url(#SVGID_00000117646844344196326180000006621724732155762598_);fill:#ECEDED;}
	.st29{clip-path:url(#SVGID_00000091718861721989066140000009990103685407733634_);fill:#ECEDED;}
	.st30{clip-path:url(#SVGID_00000119835794219320270740000011812241224646478489_);fill:#E0B186;}
	.st31{clip-path:url(#SVGID_00000036217546008755961630000007164453405947580338_);fill:#FF473B;}
	
		.st32{opacity:0.2;clip-path:url(#SVGID_00000017479383076428266080000012571323117563503021_);fill:#FFFFFF;enable-background:new    ;}
	.st33{clip-path:url(#SVGID_00000169518539963158139330000008345105865052915109_);fill:#FFC999;}
	.st34{clip-path:url(#SVGID_00000052063345096706962660000011838876171814852228_);fill:#FFC999;}
	.st35{clip-path:url(#SVGID_00000139999015614812549760000010611812595194837126_);fill:#76BA36;}
	.st36{clip-path:url(#SVGID_00000047782523082599164700000013307494426383292337_);fill:#FFF88C;}
	.st37{clip-path:url(#SVGID_00000057142454169536605500000016893140498912452248_);fill:#FFC999;}
</style>
<g id="BACKGROUND">
</g>
<g id="OBJECTS">
	<g>
		<g>
			<defs>
				
					<ellipse id="SVGID_1_" transform="matrix(0.7071 -0.7071 0.7071 0.7071 -166.3434 398.4118)" cx="397.8" cy="400" rx="391" ry="391"/>
			</defs>
			<clipPath id="SVGID_00000129926905996459933790000001975479636224033198_">
				<use xlink:href="#SVGID_1_"  style="overflow:visible;"/>
			</clipPath>
			
				<circle style="clip-path:url(#SVGID_00000129926905996459933790000001975479636224033198_);fill:#98D3EA;" cx="397.8" cy="400" r="391"/>
		</g>
		<g>
			<defs>
				
					<ellipse id="SVGID_00000065075388214688197610000005024033434556122814_" transform="matrix(0.7071 -0.7071 0.7071 0.7071 -166.3434 398.4118)" cx="397.8" cy="400" rx="391" ry="391"/>
			</defs>
			<clipPath id="SVGID_00000071552930610136798690000011876795133502592699_">
				<use xlink:href="#SVGID_00000065075388214688197610000005024033434556122814_"  style="overflow:visible;"/>
			</clipPath>
			<path style="clip-path:url(#SVGID_00000071552930610136798690000011876795133502592699_);fill:#F2BF91;" d="M234.5,340.6
				l-64.3,62.7l-47.3,126.5l76.5-4.4c0,0,17.5-1.3,25-13.2C231.9,500.2,234.5,340.6,234.5,340.6z"/>
		</g>
		<g>
			<defs>
				
					<ellipse id="SVGID_00000129928310393712622290000000187028312757741725_" transform="matrix(0.7071 -0.7071 0.7071 0.7071 -166.3434 398.4118)" cx="397.8" cy="400" rx="391" ry="391"/>
			</defs>
			<clipPath id="SVGID_00000127024814122142709310000005348424960592195971_">
				<use xlink:href="#SVGID_00000129928310393712622290000000187028312757741725_"  style="overflow:visible;"/>
			</clipPath>
			<g style="clip-path:url(#SVGID_00000127024814122142709310000005348424960592195971_);">
				<path class="st3" d="M214.9,666.9c-3.1,0-5.7-2.5-5.7-5.7V179.5c0-3.1,2.5-5.7,5.7-5.7H592c3.1,0,5.7,2.5,5.7,5.7v481.7
					c0,3.1-2.5,5.7-5.7,5.7H214.9z"/>
			</g>
		</g>
		<g>
			<defs>
				
					<ellipse id="SVGID_00000058590425804427924370000014833143653831287214_" transform="matrix(0.7071 -0.7071 0.7071 0.7071 -166.3434 398.4118)" cx="397.8" cy="400" rx="391" ry="391"/>
			</defs>
			<clipPath id="SVGID_00000032636083827095176890000018008865580219776139_">
				<use xlink:href="#SVGID_00000058590425804427924370000014833143653831287214_"  style="overflow:visible;"/>
			</clipPath>
			
				<rect x="238.9" y="191.9" style="clip-path:url(#SVGID_00000032636083827095176890000018008865580219776139_);fill:#ECEDED;" width="340.2" height="449.7"/>
		</g>
		<g>
			<defs>
				
					<ellipse id="SVGID_00000085932161479584876040000000689443721539545491_" transform="matrix(0.7071 -0.7071 0.7071 0.7071 -166.3434 398.4118)" cx="397.8" cy="400" rx="391" ry="391"/>
			</defs>
			<clipPath id="SVGID_00000069368022322221105250000006537215567871151753_">
				<use xlink:href="#SVGID_00000085932161479584876040000000689443721539545491_"  style="overflow:visible;"/>
			</clipPath>
			<polyline style="clip-path:url(#SVGID_00000069368022322221105250000006537215567871151753_);fill:#F2BF91;" points="
				131.6,506.6 81.3,628.4 167.6,628.4 205.9,524.3 132.4,504.4 			"/>
		</g>
		<g>
			<defs>
				
					<ellipse id="SVGID_00000177449527288416313890000010048002625531964594_" transform="matrix(0.7071 -0.7071 0.7071 0.7071 -166.3434 398.4118)" cx="397.8" cy="400" rx="391" ry="391"/>
			</defs>
			<clipPath id="SVGID_00000081625161304464606600000017666259928623732108_">
				<use xlink:href="#SVGID_00000177449527288416313890000010048002625531964594_"  style="overflow:visible;"/>
			</clipPath>
			
				<rect x="234.5" y="199.1" style="clip-path:url(#SVGID_00000081625161304464606600000017666259928623732108_);fill:#FFFFFF;" width="337.9" height="442.6"/>
		</g>
		<g>
			<defs>
				
					<ellipse id="SVGID_00000138532167722862846960000014939013319926902688_" transform="matrix(0.7071 -0.7071 0.7071 0.7071 -166.3434 398.4118)" cx="397.8" cy="400" rx="391" ry="391"/>
			</defs>
			<clipPath id="SVGID_00000036932426074143393680000007084375654704887186_">
				<use xlink:href="#SVGID_00000138532167722862846960000014939013319926902688_"  style="overflow:visible;"/>
			</clipPath>
			
				<rect x="329.7" y="173.9" style="clip-path:url(#SVGID_00000036932426074143393680000007084375654704887186_);fill:#ECEDED;" width="147.5" height="36.2"/>
		</g>
		<g>
			<defs>
				
					<ellipse id="SVGID_00000042720852420047082040000005529962933798522270_" transform="matrix(0.7071 -0.7071 0.7071 0.7071 -166.3434 398.4118)" cx="397.8" cy="400" rx="391" ry="391"/>
			</defs>
			<clipPath id="SVGID_00000155124638080442841470000007736702981733571729_">
				<use xlink:href="#SVGID_00000042720852420047082040000005529962933798522270_"  style="overflow:visible;"/>
			</clipPath>
			
				<rect x="316.8" y="273.9" style="clip-path:url(#SVGID_00000155124638080442841470000007736702981733571729_);fill:#ECEDED;" width="228.2" height="51.3"/>
		</g>
		<g>
			<defs>
				
					<ellipse id="SVGID_00000182502269322473435300000014418389980642887829_" transform="matrix(0.7071 -0.7071 0.7071 0.7071 -166.3434 398.4118)" cx="397.8" cy="400" rx="391" ry="391"/>
			</defs>
			<clipPath id="SVGID_00000027598716535541931900000016933012345898991501_">
				<use xlink:href="#SVGID_00000182502269322473435300000014418389980642887829_"  style="overflow:visible;"/>
			</clipPath>
			
				<rect x="254.2" y="273.9" style="clip-path:url(#SVGID_00000027598716535541931900000016933012345898991501_);fill:#ECEDED;" width="51.3" height="51.3"/>
		</g>
		<g>
			<defs>
				
					<ellipse id="SVGID_00000122698569381405013520000003478491015862299027_" transform="matrix(0.7071 -0.7071 0.7071 0.7071 -166.3434 398.4118)" cx="397.8" cy="400" rx="391" ry="391"/>
			</defs>
			<clipPath id="SVGID_00000099658983785549677740000018440599157195226499_">
				<use xlink:href="#SVGID_00000122698569381405013520000003478491015862299027_"  style="overflow:visible;"/>
			</clipPath>
			
				<rect x="316.8" y="337" style="clip-path:url(#SVGID_00000099658983785549677740000018440599157195226499_);fill:#ECEDED;" width="228.2" height="51.3"/>
		</g>
		<g>
			<defs>
				
					<ellipse id="SVGID_00000116227672798277394960000009897811951595685248_" transform="matrix(0.7071 -0.7071 0.7071 0.7071 -166.3434 398.4118)" cx="397.8" cy="400" rx="391" ry="391"/>
			</defs>
			<clipPath id="SVGID_00000068662381325324182760000016774198076244642227_">
				<use xlink:href="#SVGID_00000116227672798277394960000009897811951595685248_"  style="overflow:visible;"/>
			</clipPath>
			
				<rect x="254.2" y="337" style="clip-path:url(#SVGID_00000068662381325324182760000016774198076244642227_);fill:#ECEDED;" width="51.3" height="51.3"/>
		</g>
		<g>
			<defs>
				
					<ellipse id="SVGID_00000008117642476222053130000004357694539580005521_" transform="matrix(0.7071 -0.7071 0.7071 0.7071 -166.3434 398.4118)" cx="397.8" cy="400" rx="391" ry="391"/>
			</defs>
			<clipPath id="SVGID_00000183233431086896254220000000557864649662381225_">
				<use xlink:href="#SVGID_00000008117642476222053130000004357694539580005521_"  style="overflow:visible;"/>
			</clipPath>
			
				<rect x="316.8" y="400" style="clip-path:url(#SVGID_00000183233431086896254220000000557864649662381225_);fill:#ECEDED;" width="228.2" height="51.3"/>
		</g>
		<g>
			<defs>
				
					<ellipse id="SVGID_00000119115404675180786850000008815284824696954281_" transform="matrix(0.7071 -0.7071 0.7071 0.7071 -166.3434 398.4118)" cx="397.8" cy="400" rx="391" ry="391"/>
			</defs>
			<clipPath id="SVGID_00000072274497878876201290000004545715401086613925_">
				<use xlink:href="#SVGID_00000119115404675180786850000008815284824696954281_"  style="overflow:visible;"/>
			</clipPath>
			
				<rect x="254.2" y="400" style="clip-path:url(#SVGID_00000072274497878876201290000004545715401086613925_);fill:#ECEDED;" width="51.3" height="51.3"/>
		</g>
		<g>
			<defs>
				
					<ellipse id="SVGID_00000151541420552606583740000001148522538841496984_" transform="matrix(0.7071 -0.7071 0.7071 0.7071 -166.3434 398.4118)" cx="397.8" cy="400" rx="391" ry="391"/>
			</defs>
			<clipPath id="SVGID_00000070084926028438254570000016467937461350101649_">
				<use xlink:href="#SVGID_00000151541420552606583740000001148522538841496984_"  style="overflow:visible;"/>
			</clipPath>
			
				<rect x="316.8" y="463" style="clip-path:url(#SVGID_00000070084926028438254570000016467937461350101649_);fill:#ECEDED;" width="228.2" height="51.3"/>
		</g>
		<g>
			<defs>
				
					<ellipse id="SVGID_00000053537388391067694600000007410807826930487947_" transform="matrix(0.7071 -0.7071 0.7071 0.7071 -166.3434 398.4118)" cx="397.8" cy="400" rx="391" ry="391"/>
			</defs>
			<clipPath id="SVGID_00000044178460517280596990000016662658381903316641_">
				<use xlink:href="#SVGID_00000053537388391067694600000007410807826930487947_"  style="overflow:visible;"/>
			</clipPath>
			
				<rect x="254.2" y="463" style="clip-path:url(#SVGID_00000044178460517280596990000016662658381903316641_);fill:#ECEDED;" width="51.3" height="51.3"/>
		</g>
		<g>
			<defs>
				
					<ellipse id="SVGID_00000152971218061719485780000013983877319439322292_" transform="matrix(0.7071 -0.7071 0.7071 0.7071 -166.3434 398.4118)" cx="397.8" cy="400" rx="391" ry="391"/>
			</defs>
			<clipPath id="SVGID_00000129891321448839862640000017115862118809094303_">
				<use xlink:href="#SVGID_00000152971218061719485780000013983877319439322292_"  style="overflow:visible;"/>
			</clipPath>
			
				<rect x="316.8" y="526.1" style="clip-path:url(#SVGID_00000129891321448839862640000017115862118809094303_);fill:#ECEDED;" width="228.2" height="51.3"/>
		</g>
		<g>
			<defs>
				
					<ellipse id="SVGID_00000171699511542395191590000011374681652185826744_" transform="matrix(0.7071 -0.7071 0.7071 0.7071 -166.3434 398.4118)" cx="397.8" cy="400" rx="391" ry="391"/>
			</defs>
			<clipPath id="SVGID_00000072269637027442906170000005157293187854182279_">
				<use xlink:href="#SVGID_00000171699511542395191590000011374681652185826744_"  style="overflow:visible;"/>
			</clipPath>
			
				<rect x="254.2" y="526.1" style="clip-path:url(#SVGID_00000072269637027442906170000005157293187854182279_);fill:#ECEDED;" width="51.3" height="51.3"/>
		</g>
		<g>
			<defs>
				
					<ellipse id="SVGID_00000114768344053123898870000003771118898620321161_" transform="matrix(0.7071 -0.7071 0.7071 0.7071 -166.3434 398.4118)" cx="397.8" cy="400" rx="391" ry="391"/>
			</defs>
			<clipPath id="SVGID_00000022537379283875878770000012931013920095539859_">
				<use xlink:href="#SVGID_00000114768344053123898870000003771118898620321161_"  style="overflow:visible;"/>
			</clipPath>
			<polygon style="clip-path:url(#SVGID_00000022537379283875878770000012931013920095539859_);fill:#76BA36;" points="298.8,289.3 
				294.6,285.1 276.2,303.4 265.2,292.4 260.9,296.7 271.9,307.7 271.9,307.7 276.1,311.9 276.2,311.9 276.2,311.9 280.4,307.7 
				280.4,307.7 			"/>
		</g>
		<g>
			<defs>
				
					<ellipse id="SVGID_00000075845913457113849690000012293904706575024283_" transform="matrix(0.7071 -0.7071 0.7071 0.7071 -166.3434 398.4118)" cx="397.8" cy="400" rx="391" ry="391"/>
			</defs>
			<clipPath id="SVGID_00000132079638570491130790000006441796780982256575_">
				<use xlink:href="#SVGID_00000075845913457113849690000012293904706575024283_"  style="overflow:visible;"/>
			</clipPath>
			<polygon style="clip-path:url(#SVGID_00000132079638570491130790000006441796780982256575_);fill:#76BA36;" points="298.8,355.3 
				294.6,351 276.2,369.4 265.2,358.4 260.9,362.7 271.9,373.7 271.9,373.7 276.1,377.9 276.2,377.9 276.2,377.9 280.4,373.7 
				280.4,373.7 			"/>
		</g>
		<g>
			<defs>
				
					<ellipse id="SVGID_00000119804652910205640780000009126774702778571679_" transform="matrix(0.7071 -0.7071 0.7071 0.7071 -166.3434 398.4118)" cx="397.8" cy="400" rx="391" ry="391"/>
			</defs>
			<clipPath id="SVGID_00000056413911908298385190000004414979575991741887_">
				<use xlink:href="#SVGID_00000119804652910205640780000009126774702778571679_"  style="overflow:visible;"/>
			</clipPath>
			<polygon style="clip-path:url(#SVGID_00000056413911908298385190000004414979575991741887_);fill:#76BA36;" points="298.8,416.4 
				294.6,412.2 276.2,430.6 265.2,419.6 260.9,423.8 271.9,434.8 271.9,434.9 276.1,439.1 276.2,439 276.2,439.1 280.4,434.9 
				280.4,434.8 			"/>
		</g>
		<g>
			<defs>
				
					<ellipse id="SVGID_00000150822601455186653740000008019395217689508006_" transform="matrix(0.7071 -0.7071 0.7071 0.7071 -166.3434 398.4118)" cx="397.8" cy="400" rx="391" ry="391"/>
			</defs>
			<clipPath id="SVGID_00000036946142258320698180000004943287028626262961_">
				<use xlink:href="#SVGID_00000150822601455186653740000008019395217689508006_"  style="overflow:visible;"/>
			</clipPath>
			<polygon style="clip-path:url(#SVGID_00000036946142258320698180000004943287028626262961_);fill:#FF473B;" points="290.1,493.6 
				285.2,488.7 294.4,479.5 290.1,475.2 280.9,484.5 271.7,475.2 267.5,479.5 276.7,488.7 271.8,493.6 267.5,497.9 267.5,497.9 
				271.7,502.1 271.8,502.1 271.8,502.1 276,497.9 276,497.9 280.9,492.9 285.9,497.9 285.9,497.9 290.1,502.1 290.1,502.1 
				290.1,502.1 294.4,497.9 294.3,497.9 			"/>
		</g>
		<g>
			<defs>
				
					<ellipse id="SVGID_00000141452463726498798290000000439173775757860999_" transform="matrix(0.7071 -0.7071 0.7071 0.7071 -166.3434 398.4118)" cx="397.8" cy="400" rx="391" ry="391"/>
			</defs>
			<clipPath id="SVGID_00000022541853665418157100000003992630470945100462_">
				<use xlink:href="#SVGID_00000141452463726498798290000000439173775757860999_"  style="overflow:visible;"/>
			</clipPath>
			<polygon style="clip-path:url(#SVGID_00000022541853665418157100000003992630470945100462_);fill:#FF473B;" points="290.1,556.7 
				285.2,551.7 294.4,542.5 290.1,538.3 280.9,547.5 271.7,538.3 267.5,542.5 276.7,551.7 271.8,556.7 267.5,560.9 267.5,561 
				271.7,565.2 271.8,565.1 271.8,565.2 276,561 276,560.9 280.9,556 285.9,560.9 285.9,561 290.1,565.2 290.1,565.1 290.1,565.2 
				294.4,561 294.3,560.9 			"/>
		</g>
		<g>
			<defs>
				
					<ellipse id="SVGID_00000049209137848912989370000017478003591347101334_" transform="matrix(0.7071 -0.7071 0.7071 0.7071 -166.3434 398.4118)" cx="397.8" cy="400" rx="391" ry="391"/>
			</defs>
			<clipPath id="SVGID_00000171711729389969350180000002049805496471356587_">
				<use xlink:href="#SVGID_00000049209137848912989370000017478003591347101334_"  style="overflow:visible;"/>
			</clipPath>
			<path style="clip-path:url(#SVGID_00000171711729389969350180000002049805496471356587_);fill:#FFC999;" d="M209.2,475.2
				c0,0,5.5-9.7,25.2-49.6c19.8-39.9,0-47.7,0-47.7l-53.3,63.3l-57,83.8C124.2,525,209.2,542.5,209.2,475.2z"/>
		</g>
		<g>
			<defs>
				
					<ellipse id="SVGID_00000055706025644341866560000003798481399922892417_" transform="matrix(0.7071 -0.7071 0.7071 0.7071 -166.3434 398.4118)" cx="397.8" cy="400" rx="391" ry="391"/>
			</defs>
			<clipPath id="SVGID_00000059306356107576764450000009352977710308231833_">
				<use xlink:href="#SVGID_00000055706025644341866560000003798481399922892417_"  style="overflow:visible;"/>
			</clipPath>
			<polygon style="clip-path:url(#SVGID_00000059306356107576764450000009352977710308231833_);fill:#FFC999;" points="163,525 
				124.2,525 81.3,628.4 120.1,628.4 			"/>
		</g>
		<g>
			<defs>
				
					<ellipse id="SVGID_00000076577124346424425600000011008743298639611550_" transform="matrix(0.7071 -0.7071 0.7071 0.7071 -166.3434 398.4118)" cx="397.8" cy="400" rx="391" ry="391"/>
			</defs>
			<clipPath id="SVGID_00000117653748846880667000000010989075914118802083_">
				<use xlink:href="#SVGID_00000076577124346424425600000011008743298639611550_"  style="overflow:visible;"/>
			</clipPath>
			<polygon style="clip-path:url(#SVGID_00000117653748846880667000000010989075914118802083_);fill:#76BA36;" points="138.1,753 
				13.9,753 101.2,549.8 205.9,549.8 			"/>
		</g>
		<g>
			<defs>
				
					<ellipse id="SVGID_00000141451476556706068410000004700010780024752808_" transform="matrix(0.7071 -0.7071 0.7071 0.7071 -166.3434 398.4118)" cx="397.8" cy="400" rx="391" ry="391"/>
			</defs>
			<clipPath id="SVGID_00000172419321029629266500000013571484881279027082_">
				<use xlink:href="#SVGID_00000141451476556706068410000004700010780024752808_"  style="overflow:visible;"/>
			</clipPath>
			<polygon style="clip-path:url(#SVGID_00000172419321029629266500000013571484881279027082_);fill:#FFF88C;" points="207.9,535.4 
				115,535.4 109.9,549.8 202.8,549.8 			"/>
		</g>
		<g>
			<defs>
				
					<ellipse id="SVGID_00000024699695627615939810000017809616118907116474_" transform="matrix(0.7071 -0.7071 0.7071 0.7071 -166.3434 398.4118)" cx="397.8" cy="400" rx="391" ry="391"/>
			</defs>
			<clipPath id="SVGID_00000008835922895358765190000012019105562616811412_">
				<use xlink:href="#SVGID_00000024699695627615939810000017809616118907116474_"  style="overflow:visible;"/>
			</clipPath>
			<path style="clip-path:url(#SVGID_00000008835922895358765190000012019105562616811412_);fill:#FFC999;" d="M421.4,428.5
				l104.7,39.6l58,121.2l-76.5-4.4c0,0-17.5-1.3-25-13.2c-5.8-9.1-31.9-76.9-47.1-113.7c0,0-16.2-8.3-18.7-15.2
				C414.1,435.4,421.4,428.5,421.4,428.5z"/>
		</g>
		<g>
			<defs>
				
					<ellipse id="SVGID_00000179626460066771956620000010457426336698654617_" transform="matrix(0.7071 -0.7071 0.7071 0.7071 -166.3434 398.4118)" cx="397.8" cy="400" rx="391" ry="391"/>
			</defs>
			<clipPath id="SVGID_00000096780457765265227280000013060733364711738030_">
				<use xlink:href="#SVGID_00000179626460066771956620000010457426336698654617_"  style="overflow:visible;"/>
			</clipPath>
			<path style="clip-path:url(#SVGID_00000096780457765265227280000013060733364711738030_);fill:#ECEDED;" d="M402.7,249.3
				c-13.6,0-24.9-10.2-26.6-23.4h-46.3v-22.9l54.9-0.5c5-4.5,11.3-7,18.1-7c6.6,0,12.8,2.4,17.7,6.7l56.8-0.5v24.1h-47.9
				C427.6,239.1,416.3,249.3,402.7,249.3z M336.7,219h46.1v3.5c0,11,8.9,19.9,19.9,19.9c11,0,19.9-8.9,19.9-19.9V219h47.7v-10.1
				l-52.6,0.4l-1-1c-3.7-3.7-8.7-5.7-14-5.7c-5.4,0-10.4,2.1-14.2,6l-1,1l-50.8,0.4L336.7,219L336.7,219z"/>
		</g>
		<g>
			<defs>
				
					<ellipse id="SVGID_00000183227161883350102010000010599114272765910658_" transform="matrix(0.7071 -0.7071 0.7071 0.7071 -166.3434 398.4118)" cx="397.8" cy="400" rx="391" ry="391"/>
			</defs>
			<clipPath id="SVGID_00000060717897602457321170000005969589925961520771_">
				<use xlink:href="#SVGID_00000183227161883350102010000010599114272765910658_"  style="overflow:visible;"/>
			</clipPath>
			<polygon style="clip-path:url(#SVGID_00000060717897602457321170000005969589925961520771_);fill:#ECEDED;" points="572.4,240.2 
				531.2,240.2 531.2,199.1 			"/>
		</g>
		<g>
			<defs>
				
					<ellipse id="SVGID_00000058570494246020197180000013665402416712834974_" transform="matrix(0.7071 -0.7071 0.7071 0.7071 -166.3434 398.4118)" cx="397.8" cy="400" rx="391" ry="391"/>
			</defs>
			<clipPath id="SVGID_00000082350724193227879450000008798613633059677878_">
				<use xlink:href="#SVGID_00000058570494246020197180000013665402416712834974_"  style="overflow:visible;"/>
			</clipPath>
			<polygon style="clip-path:url(#SVGID_00000082350724193227879450000008798613633059677878_);fill:#E0B186;" points="435.5,457.9 
				490.6,477.4 511.9,526.1 457.4,529.5 			"/>
		</g>
		<g>
			<defs>
				
					<ellipse id="SVGID_00000063600053901794110030000001475204782773392574_" transform="matrix(0.7071 -0.7071 0.7071 0.7071 -166.3434 398.4118)" cx="397.8" cy="400" rx="391" ry="391"/>
			</defs>
			<clipPath id="SVGID_00000076594011654433612060000000450048703601664679_">
				<use xlink:href="#SVGID_00000063600053901794110030000001475204782773392574_"  style="overflow:visible;"/>
			</clipPath>
			<polygon style="clip-path:url(#SVGID_00000076594011654433612060000000450048703601664679_);fill:#FF473B;" points="650,491.3 
				644.9,520.3 403.4,477.5 386.9,465 377.4,457.9 388.9,454.4 408.6,448.6 408.6,448.6 			"/>
		</g>
		<g>
			<defs>
				
					<ellipse id="SVGID_00000088115768251189460040000009344245525251657360_" transform="matrix(0.7071 -0.7071 0.7071 0.7071 -166.3434 398.4118)" cx="397.8" cy="400" rx="391" ry="391"/>
			</defs>
			<clipPath id="SVGID_00000119079210865419658200000002863214771909087656_">
				<use xlink:href="#SVGID_00000088115768251189460040000009344245525251657360_"  style="overflow:visible;"/>
			</clipPath>
			
				<polygon style="opacity:0.2;clip-path:url(#SVGID_00000119079210865419658200000002863214771909087656_);fill:#FFFFFF;enable-background:new    ;" points="
				648.8,500.3 646.4,511.4 403.4,468.7 403.7,457 			"/>
		</g>
		<g>
			<defs>
				
					<ellipse id="SVGID_00000034770204398991850590000018213909660071408538_" transform="matrix(0.7071 -0.7071 0.7071 0.7071 -166.3434 398.4118)" cx="397.8" cy="400" rx="391" ry="391"/>
			</defs>
			<clipPath id="SVGID_00000031191192669483758560000011111783659730498735_">
				<use xlink:href="#SVGID_00000034770204398991850590000018213909660071408538_"  style="overflow:visible;"/>
			</clipPath>
			<path style="clip-path:url(#SVGID_00000031191192669483758560000011111783659730498735_);fill:#FFC999;" d="M503.6,589.3
				l-24.2-11.9l-58-111.6c0,0,21.2-7.9,37.5,18l23.4,35.3l14.6,3.5l9.3-26.8l21,39.6L503.6,589.3z"/>
		</g>
		<g>
			<defs>
				
					<ellipse id="SVGID_00000093172234567447806410000000551550126628905361_" transform="matrix(0.7071 -0.7071 0.7071 0.7071 -166.3434 398.4118)" cx="397.8" cy="400" rx="391" ry="391"/>
			</defs>
			<clipPath id="SVGID_00000049904646763742300920000009198437858337237413_">
				<use xlink:href="#SVGID_00000093172234567447806410000000551550126628905361_"  style="overflow:visible;"/>
			</clipPath>
			<polygon style="clip-path:url(#SVGID_00000049904646763742300920000009198437858337237413_);fill:#FFC999;" points="496.2,581.8 
				502.6,598.9 588.1,596.8 577.1,574.5 			"/>
		</g>
		<g>
			<defs>
				
					<ellipse id="SVGID_00000152945627081356009050000008961886559029300152_" transform="matrix(0.7071 -0.7071 0.7071 0.7071 -166.3434 398.4118)" cx="397.8" cy="400" rx="391" ry="391"/>
			</defs>
			<clipPath id="SVGID_00000160891001118082817910000009384990291327471242_">
				<use xlink:href="#SVGID_00000152945627081356009050000008961886559029300152_"  style="overflow:visible;"/>
			</clipPath>
			<polygon style="clip-path:url(#SVGID_00000160891001118082817910000009384990291327471242_);fill:#76BA36;" points="569,812.4 
				693.2,812.4 605.8,609.2 501.1,609.2 			"/>
		</g>
		<g>
			<defs>
				
					<ellipse id="SVGID_00000107587551577257650240000010008671161846608520_" transform="matrix(0.7071 -0.7071 0.7071 0.7071 -166.3434 398.4118)" cx="397.8" cy="400" rx="391" ry="391"/>
			</defs>
			<clipPath id="SVGID_00000046317205251783569420000015412606829297962930_">
				<use xlink:href="#SVGID_00000107587551577257650240000010008671161846608520_"  style="overflow:visible;"/>
			</clipPath>
			<polygon style="clip-path:url(#SVGID_00000046317205251783569420000015412606829297962930_);fill:#FFF88C;" points="499.1,594.8 
				592,594.8 597.1,609.2 504.2,609.2 			"/>
		</g>
		<g>
			<defs>
				
					<ellipse id="SVGID_00000097500954035107251240000009665350206873757325_" transform="matrix(0.7071 -0.7071 0.7071 0.7071 -166.3434 398.4118)" cx="397.8" cy="400" rx="391" ry="391"/>
			</defs>
			<clipPath id="SVGID_00000084498591307060650770000005930250111400271023_">
				<use xlink:href="#SVGID_00000097500954035107251240000009665350206873757325_"  style="overflow:visible;"/>
			</clipPath>
			<polygon style="clip-path:url(#SVGID_00000084498591307060650770000005930250111400271023_);fill:#FFC999;" points="408.6,448.6 
				403.4,477.5 386.9,465 388.9,454.4 408.6,448.6 			"/>
		</g>
	</g>
</g>
</svg>
