<svg width="17" height="17" viewBox="0 0 17 17" fill="none" xmlns="http://www.w3.org/2000/svg">
<path d="M6.13959 9.68941L7.58482 11.2271L2.32146 16.4905C1.90961 16.9023 1.24186 16.9023 0.830005 16.4905C0.418151 16.0786 0.418151 15.4108 0.830004 14.999L6.13959 9.68941ZM16.4903 0.830151C16.9022 1.24201 16.9022 1.90975 16.4903 2.32161L10.1516 8.6603L16.4903 14.999C16.9022 15.4108 16.9022 16.0786 16.4903 16.4905C16.0785 16.9023 15.4107 16.9023 14.9989 16.4905L8.66016 10.1518L8.65046 10.1615L7.21717 8.70728L0.830005 2.32161C0.41815 1.90975 0.41815 1.24201 0.830005 0.830151C1.24186 0.418296 1.90961 0.418296 2.32146 0.830151L8.6609 7.1681L14.9989 0.830151C15.4107 0.418296 16.0785 0.418296 16.4903 0.830151Z" fill="black"/>
</svg>
