<?xml version="1.0" encoding="utf-8"?>
<!-- Generator: Adobe Illustrator 25.4.1, SVG Export Plug-In . SVG Version: 6.00 Build 0)  -->
<svg version="1.1" id="레이어_1" xmlns="http://www.w3.org/2000/svg" xmlns:xlink="http://www.w3.org/1999/xlink" x="0px"
	 y="0px" viewBox="0 0 800 800" style="enable-background:new 0 0 800 800;" xml:space="preserve">
<style type="text/css">
	.st0{fill:#414A56;}
	.st1{fill:#57606F;}
	.st2{fill:#D7DEED;}
	.st3{fill:#AFB9D2;}
</style>
<g id="BACKGROUND">
</g>
<g>
	<g id="_x33_60_x2C__resume_x2C__storage_x2C__print_x2C__cv_x2C__document">
		<g>
			<g>
				<path class="st0" d="M314.5,218c-2.6,0-5.3-2.7-5.3-5.3v-39.9c0-2.7,2.7-5.3,5.3-5.3h251.4c2.7,0,5.3,2.7,5.3,5.3
					s-2.7,5.3-5.3,5.3h-246v34.6C319.9,215.3,317.2,218,314.5,218z"/>
			</g>
			<g>
				<path class="st0" d="M213.5,670.1h-1.3c-2.7-1.3-4-4-4-6.6l25.3-87.8c0-2.7,2.7-4,5.3-4h111.7c2.7,0,4,1.3,5.3,4l23.9,87.8
					c1.3,2.6-1.3,5.3-4,6.6c-2.7,1.3-5.3-1.3-6.6-4l-22.6-83.8H241.4l-23.9,83.8C217.5,667.5,214.8,670.1,213.5,670.1z"/>
			</g>
			<g>
				<path class="st1" d="M381,712.7H43.3c-2.7,0-5.3-2.6-5.3-5.3c0-2.7,2.7-5.3,5.3-5.3H381c2.7,0,5.3,2.7,5.3,5.3
					C386.4,710,383.7,712.7,381,712.7z"/>
			</g>
			<g>
				<path class="st1" d="M475.5,732.6H241.4c-2.6,0-5.3-2.6-5.3-5.3c0-2.7,2.7-5.3,5.3-5.3h234.1c2.7,0,5.3,2.7,5.3,5.3
					C480.8,730,478.1,732.6,475.5,732.6z"/>
			</g>
			<g>
				<path class="st1" d="M527.3,732.6h-27.9c-2.7,0-5.3-2.6-5.3-5.3c0-2.7,2.7-5.3,5.3-5.3h27.9c2.7,0,5.3,2.7,5.3,5.3
					C532.6,730,530,732.6,527.3,732.6z"/>
			</g>
			<g>
				<path class="st1" d="M141.7,732.6H30c-2.7,0-5.3-2.6-5.3-5.3c0-2.7,2.7-5.3,5.3-5.3h111.7c2.7,0,5.3,2.7,5.3,5.3
					C147,730,144.3,732.6,141.7,732.6z"/>
			</g>
			<path class="st1" d="M512.7,212.7c-82.5,0-141,0-198.2,0c-69.1,0-137,0-240.7,0c-14.6,0-26.6,12-26.6,26.6v316.5
				c0,14.6,12,27.9,26.6,27.9h117h47.9h111.7H514c17.3,0,27.9-13.3,27.9-27.9V239.3C540.6,224.6,528.7,212.7,512.7,212.7z"/>
			<g>
				<g>
					<path class="st2" d="M512.7,239.3v259.3H73.8V239.3C258.7,239.3,335.8,239.3,512.7,239.3z"/>
				</g>
			</g>
			<g>
				<path class="st0" d="M305.2,553.1c0,6.6-5.3,12-12,12c-5.3,0-10.6-5.3-10.6-12c0-5.3,5.3-10.6,10.6-10.6
					C299.9,543.8,305.2,547.8,305.2,553.1z"/>
			</g>
			<g>
				<g>
					<path class="st3" d="M459.5,373.6H128.4c-2.6,0-5.3-2.6-5.3-5.3c0-2.7,2.7-5.3,5.3-5.3h331.1c2.7,0,5.3,2.7,5.3,5.3
						C464.8,370.9,462.2,373.6,459.5,373.6z"/>
				</g>
			</g>
			<g>
				<g>
					<path class="st3" d="M459.5,398.8H128.4c-2.6,0-5.3-2.7-5.3-5.3c0-2.6,2.7-5.3,5.3-5.3h331.1c2.7,0,5.3,2.7,5.3,5.3
						C464.8,396.2,462.2,398.8,459.5,398.8z"/>
				</g>
			</g>
			<g>
				<g>
					<path class="st3" d="M459.5,421.4H128.4c-2.6,0-5.3-2.7-5.3-5.3c0-2.7,2.7-5.3,5.3-5.3h331.1c2.7,0,5.3,2.6,5.3,5.3
						C464.8,418.8,462.2,421.4,459.5,421.4z"/>
				</g>
			</g>
			<g>
				<path class="st1" d="M19.3,355c-2.7,0-5.3-2.7-5.3-5.3V215.3c0-18.6,16-34.6,34.6-34.6H127c2.7,0,5.3,2.7,5.3,5.3
					s-2.7,5.3-5.3,5.3H48.6c-14.6,0-25.3,10.6-25.3,25.3V351C23.3,353.6,22,355,19.3,355z"/>
			</g>
			<g>
				<g>
					<path class="st3" d="M286.6,299.1H128.4c-2.6,0-5.3-2.7-5.3-5.3c0-2.6,2.7-5.3,5.3-5.3h158.3c2.7,0,5.3,2.7,5.3,5.3
						C291.9,296.4,289.3,299.1,286.6,299.1z"/>
				</g>
			</g>
			<g>
				<g>
					<path class="st3" d="M286.6,321.7H128.4c-2.6,0-5.3-2.7-5.3-5.3c0-2.7,2.7-5.3,5.3-5.3h158.3c2.7,0,5.3,2.6,5.3,5.3
						C291.9,320.4,289.3,321.7,286.6,321.7z"/>
				</g>
			</g>
			<g>
				<polygon class="st1" points="444.9,664.8 444.9,686.1 143,686.1 143,664.8 213.5,664.8 373.1,664.8 				"/>
			</g>
			<g>
				<polygon class="st1" points="784,66.4 784,331 565.9,331 565.9,172.8 565.9,66.4 				"/>
			</g>
			<g>
				<path class="st0" d="M733.5,127.5H615.1c-2.7,0-5.3-2.6-5.3-5.3s2.7-5.3,5.3-5.3h118.4c2.7,0,5.3,2.7,5.3,5.3
					S736.1,127.5,733.5,127.5z"/>
			</g>
			<g>
				<path class="st0" d="M733.5,166.1H615.1c-2.7,0-5.3-2.7-5.3-5.3c0-2.6,2.7-5.3,5.3-5.3h118.4c2.7,0,5.3,2.7,5.3,5.3
					C738.8,163.4,736.1,166.1,733.5,166.1z"/>
			</g>
			<g>
				<path class="st0" d="M733.5,202H615.1c-2.7,0-5.3-2.7-5.3-5.3s2.7-5.3,5.3-5.3h118.4c2.7,0,5.3,2.6,5.3,5.3
					C738.8,200.7,736.1,202,733.5,202z"/>
			</g>
			<g>
				<path class="st0" d="M733.5,240.6H615.1c-2.7,0-5.3-2.6-5.3-5.3s2.7-5.3,5.3-5.3h118.4c2.7,0,5.3,2.7,5.3,5.3
					S736.1,240.6,733.5,240.6z"/>
			</g>
			<g>
				<path class="st0" d="M733.5,279.1H615.1c-2.7,0-5.3-2.7-5.3-5.3c0-2.6,2.7-5.3,5.3-5.3h118.4c2.7,0,5.3,2.7,5.3,5.3
					C738.8,276.5,736.1,279.1,733.5,279.1z"/>
			</g>
		</g>
	</g>
	<g id="Layer_1_6_">
	</g>
</g>
</svg>
