<?xml version="1.0" encoding="utf-8"?>
<!-- Generator: Adobe Illustrator 25.4.1, SVG Export Plug-In . SVG Version: 6.00 Build 0)  -->
<svg version="1.1" id="레이어_1" xmlns="http://www.w3.org/2000/svg" xmlns:xlink="http://www.w3.org/1999/xlink" x="0px"
	 y="0px" viewBox="0 0 800 800" style="enable-background:new 0 0 800 800;" xml:space="preserve">
<style type="text/css">
	.st0{fill:url(#SVGID_1_);}
	.st1{fill:url(#SVGID_00000079449635099641769770000001661149407367563669_);}
	.st2{fill:url(#SVGID_00000073718694324572541270000002851906678397009067_);}
	.st3{fill:url(#SVGID_00000160171874887785177510000009338025557305707422_);}
</style>
<g id="BACKGROUND">
</g>
<g>
	<g>
		<linearGradient id="SVGID_1_" gradientUnits="userSpaceOnUse" x1="563.4197" y1="290.0551" x2="401.5852" y2="472.1191">
			<stop  offset="0" style="stop-color:#4D45B1"/>
			<stop  offset="1" style="stop-color:#C77CDE"/>
		</linearGradient>
		<path class="st0" d="M466.2,230.2L466.2,230.2c-37.8,0-58.1,44.5-33.3,73l75.8,87.4c4.4,5.1,4.4,12.7,0,17.8l-75.8,87.4
			c-24.8,28.6-4.5,73,33.3,73l0,0c12.8,0,25-5.6,33.3-15.2l93-107.3c23.3-26.9,23.3-66.8,0-93.7l-93-107.3
			C491.1,235.7,479,230.2,466.2,230.2z"/>
		
			<linearGradient id="SVGID_00000123438736301209288270000004489196048484103343_" gradientUnits="userSpaceOnUse" x1="2934.4675" y1="290.0551" x2="2772.6331" y2="472.1191" gradientTransform="matrix(-1 0 0 1 3169.0474 0)">
			<stop  offset="0" style="stop-color:#4D45B1"/>
			<stop  offset="1" style="stop-color:#C77CDE"/>
		</linearGradient>
		<path style="fill:url(#SVGID_00000123438736301209288270000004489196048484103343_);" d="M331.8,230.2L331.8,230.2
			c37.8,0,58.1,44.5,33.3,73l-75.8,87.4c-4.4,5.1-4.4,12.7,0,17.8l75.8,87.4c24.8,28.6,4.5,73-33.3,73l0,0c-12.8,0-25-5.6-33.3-15.2
			l-93-107.3c-23.3-26.9-23.3-66.8,0-93.7l93-107.3C306.9,235.7,319,230.2,331.8,230.2z"/>
	</g>
	<g>
		<g>
			
				<linearGradient id="SVGID_00000181806157251380704760000016997434603705092513_" gradientUnits="userSpaceOnUse" x1="553.1975" y1="399.4994" x2="786" y2="399.4994">
				<stop  offset="0" style="stop-color:#4D45B1"/>
				<stop  offset="1" style="stop-color:#C77CDE"/>
			</linearGradient>
			<path style="fill:url(#SVGID_00000181806157251380704760000016997434603705092513_);" d="M781.1,404.5
				c-41.5,0-87.2,15.4-87.2,85.8v124.2c0,71.1-78.4,81.5-134.1,80.1c-3.7-0.1-6.6-2.4-6.6-5.1l0,0c0-2.8,2.9-5.1,6.7-5.1
				c40.2-0.4,86.1-15.1,86.1-82.9V477.3c0-49.7,36-69.8,76.8-77.5c-40.8-8.3-76.8-27.8-76.8-78.1V197.5c0-65-46-82.2-86.2-82.9
				c-3.7-0.1-6.6-2.4-6.6-5.1v0c0-2.7,2.9-5,6.6-5.1c55.1-1.4,134.1,9,134.1,80.1v139c0,55.2,41.8,70.6,80,70.6
				C792.6,394.1,785,404.5,781.1,404.5z"/>
		</g>
		<g>
			
				<linearGradient id="SVGID_00000143585135808010166460000000441163251393740214_" gradientUnits="userSpaceOnUse" x1="2800.5776" y1="399.4994" x2="3033.3806" y2="399.4994" gradientTransform="matrix(-1 0 0 1 3045.3806 0)">
				<stop  offset="0" style="stop-color:#4D45B1"/>
				<stop  offset="1" style="stop-color:#C77CDE"/>
			</linearGradient>
			<path style="fill:url(#SVGID_00000143585135808010166460000000441163251393740214_);" d="M24.1,394.1c38.2,0,80-15.4,80-70.6
				v-139c0-71.1,79-81.5,134.1-80.1c3.7,0.1,6.6,2.4,6.6,5.1v0c0,2.7-2.9,5-6.6,5.1c-40.2,0.6-86.2,17.8-86.2,82.9v124.2
				c0,50.3-36,69.8-76.8,78.1c40.8,7.7,76.8,27.8,76.8,77.5v124.2c0,67.8,45.9,82.5,86.1,82.9c3.7,0,6.7,2.3,6.7,5.1l0,0
				c0,2.7-2.9,5-6.6,5.1c-55.8,1.4-134.1-9-134.1-80.1V490.3c0-70.4-45.7-85.8-87.2-85.8C13,404.5,5.4,394.1,24.1,394.1z"/>
		</g>
	</g>
</g>
</svg>
